#!OML:ASF X:\für Bonn\!DataBase\2005_08_10_Bjorn_Final\c3d\bjorn.ASF
:FULLY-SPECIFIED
:DEGREES
251
root 0.28567 3.98372 21.8699 -426 -168.882 365.321
lowerback 45.5222 7.71497 15.84
upperback 25.8708 4.48142 7.55515
thorax 9.90415 -1.70397 -1.60878
lowerneck 5.74282 0.070851 -0.105974
upperneck 16.045 -0.320352 -7.32709
head 4.29818 -0.945464 -2.51866
rclavicle -8.05078e-014 4.96962e-015
rhumerus -235.246 -147.095 112.808
rradius 19.9437
rwrist -17.9945
rhand -14.2596 -2.21954
rfingers 7.12502
rthumb 11.8788 -31.8626
lclavicle -8.05078e-014 4.96962e-015
lhumerus -395.09 37.2689 -307.571
lradius 13.2942
lwrist -29.9885
lhand -15.5958 -1.23863
lfingers 7.12502
lthumb 10.5901 28.4745
rfemur -68.4719 -39.8132 -1.73946
rtibia 120.729
rfoot 28.5131 20.3478
rtoes -0.395638
lfemur -72.6464 19.6006 5.31461
ltibia 138.834
lfoot 2.99892 -35.2753
ltoes -16.7542
252
root 0.273284 3.92948 21.8825 -426.212 -169.042 365.392
lowerback 45.8819 7.73988 16.0207
upperback 25.9877 4.46853 7.5712
thorax 10.0004 -1.75838 -1.67917
lowerneck 5.38063 0.623776 -0.285127
upperneck 15.9731 0.460299 -7.3441
head 4.37526 -0.567617 -2.48191
rclavicle 1.18277e-014 4.79071e-014
rhumerus -234.901 -148.42 111.402
rradius 20.8719
rwrist -19.2363
rhand -14.2429 -2.26647
rfingers 7.12502
rthumb 11.8949 -31.9086
lclavicle 1.18277e-014 4.79071e-014
lhumerus -394.34 35.583 -306.98
lradius 13.3735
lwrist -28.8821
lhand -15.8618 -1.92689
lfingers 7.12502
lthumb 10.3334 27.7992
rfemur -68.4603 -39.8321 -1.65128
rtibia 120.769
rfoot 28.5563 20.4615
rtoes 0.346845
lfemur -73.001 19.8808 5.36098
ltibia 138.952
lfoot 3.43182 -35.4074
ltoes -16.6115
253
root 0.260644 3.87533 21.8947 -426.415 -169.193 365.436
lowerback 47.3699 7.51263 16.4498
upperback 25.2465 4.57751 7.16073
thorax 9.8559 -1.8022 -1.78726
lowerneck 5.05996 1.15368 -0.440492
upperneck 15.9258 1.20463 -7.33407
head 4.45105 -0.206619 -2.43782
rclavicle -4.87022e-014 1.90833e-014
rhumerus -234.718 -149.578 110.236
rradius 21.7622
rwrist -20.3171
rhand -14.2312 -2.18478
rfingers 7.12502
rthumb 11.9061 -31.8262
lclavicle -4.87022e-014 1.90833e-014
lhumerus -393.584 33.4041 -306.202
lradius 13.4972
lwrist -27.6161
lhand -16.1983 -2.57015
lfingers 7.12502
lthumb 10.0088 27.1719
rfemur -68.4767 -39.8153 -1.56155
rtibia 120.793
rfoot 28.5551 20.5896
rtoes 0.915428
lfemur -73.3526 20.1435 5.37629
ltibia 139.084
lfoot 3.779 -35.5329
ltoes -16.4692
254
root 0.247721 3.82068 21.9068 -426.623 -169.357 365.474
lowerback 47.7893 7.5011 16.6745
upperback 25.3197 4.56538 7.12526
thorax 9.92402 -1.84603 -1.91553
lowerneck 4.84017 1.66372 -0.518532
upperneck 15.7834 1.92369 -7.36602
head 4.47249 0.150554 -2.41722
rclavicle -1.23246e-014 5.96354e-015
rhumerus -234.622 -150.662 109.159
rradius 22.6436
rwrist -21.329
rhand -14.256 -2.13317
rfingers 7.12502
rthumb 11.8823 -31.776
lclavicle -1.23246e-014 5.96354e-015
lhumerus -392.947 31.0678 -305.458
lradius 13.6933
lwrist -26.2508
lhand -16.345 -3.08775
lfingers 7.12502
lthumb 9.86727 26.661
rfemur -68.5259 -39.7553 -1.41875
rtibia 120.794
rfoot 28.5557 20.7183
rtoes 1.19366
lfemur -73.6863 20.4082 5.39824
ltibia 139.21
lfoot 4.16649 -35.6182
ltoes -16.2914
255
root 0.235479 3.7677 21.9202 -426.833 -169.537 365.52
lowerback 48.2148 7.47886 16.8718
upperback 25.3699 4.53721 7.1148
thorax 9.95669 -1.90648 -1.99925
lowerneck 4.7199 2.17349 -0.691449
upperneck 15.6189 2.6272 -7.37177
head 4.46333 0.495966 -2.36844
rclavicle 4.77083e-015 -2.74323e-014
rhumerus -234.637 -151.69 108.326
rradius 23.4781
rwrist -22.1478
rhand -14.308 -1.99958
rfingers 7.12502
rthumb 11.8321 -31.6453
lclavicle 4.77083e-015 -2.74323e-014
lhumerus -392.416 28.0868 -304.44
lradius 14.028
lwrist -24.27
lhand -16.4128 -3.36898
lfingers 7.12502
lthumb 9.80186 26.3829
rfemur -68.6387 -39.6778 -1.17941
rtibia 120.798
rfoot 28.3399 21.0694
rtoes 0.532959
lfemur -74.0262 20.6111 5.43126
ltibia 139.335
lfoot 4.50698 -35.6965
ltoes -16.2197
256
root 0.221705 3.71312 21.9323 -427.027 -169.713 365.546
lowerback 48.6382 7.44008 17.0747
upperback 25.4096 4.49922 7.07488
thorax 9.9818 -1.96454 -2.11361
lowerneck 4.59538 2.66118 -0.820692
upperneck 15.4769 3.30372 -7.41361
head 4.46335 0.827623 -2.34074
rclavicle -7.05686e-015 1.35174e-014
rhumerus -234.686 -152.665 107.545
rradius 24.2894
rwrist -22.9166
rhand -14.3358 -1.90621
rfingers 7.12502
rthumb 11.8053 -31.5535
lclavicle -7.05686e-015 1.35174e-014
lhumerus -392.061 25.09 -303.533
lradius 14.4177
lwrist -22.3254
lhand -16.4098 -3.71814
lfingers 7.12502
lthumb 9.80476 26.0336
rfemur -68.781 -39.5925 -0.962357
rtibia 120.807
rfoot 28.2516 21.2824
rtoes 0.0825883
lfemur -74.3707 20.8764 5.42661
ltibia 139.472
lfoot 4.71409 -35.804
ltoes -16.3515
257
root 0.209052 3.65977 21.9444 -427.222 -169.871 365.554
lowerback 49.0557 7.40802 17.2178
upperback 25.4574 4.43557 7.03721
thorax 10.0062 -2.04697 -2.19462
lowerneck 4.44145 3.15292 -0.957733
upperneck 15.3678 3.98725 -7.47474
head 4.48161 1.15868 -2.31805
rclavicle -4.47266e-015 5.88403e-014
rhumerus -234.732 -153.576 106.912
rradius 25.0089
rwrist -23.5293
rhand -14.3374 -1.74613
rfingers 7.12502
rthumb 11.8038 -31.3935
lclavicle -4.47266e-015 5.88403e-014
lhumerus -391.875 21.8865 -302.57
lradius 14.9086
lwrist -20.1291
lhand -16.3686 -3.90567
lfingers 7.12502
lthumb 9.84457 25.8442
rfemur -68.8936 -39.4871 -0.804345
rtibia 120.803
rfoot 28.2981 21.3217
rtoes 0.0356133
lfemur -74.6858 21.0814 5.40805
ltibia 139.591
lfoot 5.10998 -35.8363
ltoes -16.0999
258
root 0.195115 3.60489 21.9565 -427.42 -170.057 365.59
lowerback 49.4623 7.34861 17.3739
upperback 25.5076 4.3315 7.01216
thorax 10.0368 -2.15429 -2.25821
lowerneck 4.27055 3.64956 -1.17262
upperneck 15.2755 4.67261 -7.50093
head 4.50525 1.48601 -2.26813
rclavicle -4.85035e-014 -2.54444e-014
rhumerus -234.765 -154.524 106.347
rradius 25.7255
rwrist -24.1491
rhand -14.3348 -1.60209
rfingers 7.12502
rthumb 11.8062 -31.2493
lclavicle -4.85035e-014 -2.54444e-014
lhumerus -391.859 18.6654 -301.563
lradius 15.4609
lwrist -17.6605
lhand -16.4761 -4.07793
lfingers 7.12502
lthumb 9.74081 25.6768
rfemur -69.0202 -39.3771 -0.62536
rtibia 120.806
rfoot 28.4099 21.2528
rtoes -0.0302264
lfemur -75.0415 21.2954 5.41218
ltibia 139.721
lfoot 5.41934 -35.8868
ltoes -16.2203
259
root 0.181441 3.55115 21.9676 -427.619 -170.227 365.616
lowerback 49.8691 7.28634 17.488
upperback 25.5581 4.20157 6.98716
thorax 10.0597 -2.28289 -2.29755
lowerneck 4.0422 4.14472 -1.46286
upperneck 15.2567 5.35462 -7.49492
head 4.56183 1.80287 -2.19304
rclavicle -8.85586e-014 3.1408e-014
rhumerus -234.804 -155.421 105.901
rradius 26.3868
rwrist -24.6722
rhand -14.2777 -1.48118
rfingers 7.12502
rthumb 11.8613 -31.1252
lclavicle -8.85586e-014 3.1408e-014
lhumerus -392.002 15.2205 -300.434
lradius 16.0895
lwrist -14.7174
lhand -16.6785 -4.19389
lfingers 7.12502
lthumb 9.54553 25.5699
rfemur -69.1331 -39.2932 -0.478017
rtibia 120.81
rfoot 28.5189 21.1869
rtoes -0.0643693
lfemur -75.3761 21.4723 5.39756
ltibia 139.837
lfoot 5.84666 -35.9232
ltoes -16.0339
260
root 0.16784 3.49693 21.9792 -427.801 -170.393 365.652
lowerback 50.2161 7.23592 17.582
upperback 25.6399 4.05459 6.97725
thorax 10.1257 -2.42433 -2.31227
lowerneck 3.55315 4.62035 -1.63575
upperneck 15.7746 6.09646 -7.74397
head 4.33308 2.10067 -1.98087
rclavicle -8.88567e-014 6.75868e-015
rhumerus -234.785 -156.324 105.456
rradius 27.0331
rwrist -25.307
rhand -14.2078 -1.29551
rfingers 7.12502
rthumb 11.9288 -30.9357
lclavicle -8.88567e-014 6.75868e-015
lhumerus -392.264 11.9399 -299.359
lradius 16.7777
lwrist -11.95
lhand -16.8321 -4.20382
lfingers 7.12502
lthumb 9.39736 25.5667
rfemur -69.2736 -39.198 -0.336882
rtibia 120.819
rfoot 28.7017 21.0306
rtoes 0.0495079
lfemur -75.7504 21.6772 5.36665
ltibia 139.962
lfoot 6.23959 -35.941
ltoes -15.9681
261
root 0.153793 3.44306 21.9895 -427.994 -170.581 365.683
lowerback 50.5967 7.17358 17.6961
upperback 25.6907 3.92102 6.95873
thorax 10.1558 -2.55504 -2.34405
lowerneck 3.33577 5.07873 -1.82349
upperneck 15.8079 6.73761 -7.79047
head 4.3983 2.39593 -1.93993
rclavicle -6.53008e-014 -2.42517e-014
rhumerus -234.852 -157.12 105.138
rradius 27.6333
rwrist -25.8248
rhand -14.121 -1.09689
rfingers 7.12502
rthumb 12.0124 -30.7322
lclavicle -6.53008e-014 -2.42517e-014
lhumerus -392.703 8.74525 -298.336
lradius 17.5363
lwrist -9.30093
lhand -16.9812 -4.19209
lfingers 7.12502
lthumb 9.25351 25.5848
rfemur -69.3971 -39.1024 -0.180611
rtibia 120.823
rfoot 28.8521 20.9219
rtoes 0.0312377
lfemur -76.1095 21.9439 5.34615
ltibia 140.093
lfoot 6.53177 -36.0094
ltoes -16.0324
262
root 0.139336 3.38874 21.9991 -428.161 -170.735 365.723
lowerback 50.9197 7.09345 17.8112
upperback 25.7488 3.76746 6.90895
thorax 10.2052 -2.68244 -2.4073
lowerneck 3.17003 5.53212 -1.90516
upperneck 15.808 7.37479 -7.89158
head 4.44923 2.69546 -1.93313
rclavicle -1.17184e-013 2.78299e-015
rhumerus -234.931 -157.854 104.822
rradius 28.222
rwrist -26.4323
rhand -14.1598 -0.910764
rfingers 7.12502
rthumb 11.975 -30.5482
lclavicle -1.17184e-013 2.78299e-015
lhumerus -393.266 5.51332 -297.323
lradius 18.3907
lwrist -6.61926
lhand -17.1436 -4.12625
lfingers 7.12502
lthumb 9.0968 25.6576
rfemur -69.5586 -39.064 -0.0498421
rtibia 120.843
rfoot 29.0334 20.7383
rtoes 0.0262953
lfemur -76.5433 22.11 5.28317
ltibia 140.233
lfoot 7.06422 -35.9921
ltoes -15.6245
